# xmcd
#
# Track frame offsets:
#	150
#	40281
#	80403
#	103931
#	117418
#	148751
#	162789
#	166426
#	182323
#	196059
#	229005
#	249715
#
# Disc length: 3805 seconds
#
# Revision: 1
# Processed by: cddbd v1.5.2PL0 Copyright (c) Steve Scherf et al.
# Submitted via: audiograbber 1.83.01
#
DISCID=9c0edb0c
DTITLE=Grateful Dead - 73-03-28A Springfield Civic Centre Arena, Springfield MA
DYEAR=1900
DGENRE=
TTITLE0=Looks Like Rain
TTITLE1=China Cat Sunflower
TTITLE2=I Know You Rider
TTITLE3=Promised Land
TTITLE4=Loose Lucy
TTITLE5=Me and My Uncle
TTITLE6="Hartford Smoke In"
TTITLE7=Don't Ease Me In
TTITLE8=The Race Is On
TTITLE9=Stella Blue
TTITLE10=Big River
TTITLE11=Mississippi Half-Step
EXTD=
EXTT0=
EXTT1=
EXTT2=
EXTT3=
EXTT4=
EXTT5=
EXTT6=
EXTT7=
EXTT8=
EXTT9=
EXTT10=
EXTT11=
PLAYORDER=
